<?xml version="1.0" encoding="UTF-8"?>
  <!DOCTYPE svg PUBLIC "-//W3C//DTD SVG 1.1//EN" "http://www.w3.org/Graphics/SVG/1.1/DTD/svg11.dtd">
  <!-- Generated by graphviz version 2.46.0 (20210118.1747)
 -->
  <!-- Title: G Pages: 1 -->
  <svg xmlns="http://www.w3.org/2000/svg" xmlns:xlink="http://www.w3.org/1999/xlink" width="539pt" height="216.2153130066419pt" viewBox="1.44 1.44 537.46 214.21">
    <defs>
      <filter id="average">
        <feColorMatrix type="matrix" values="0.3333 0.3333 0.3333 0 0                                           0.3333 0.3333 0.3333 0 0                                           0.3333 0.3333 0.3333 0 0                                           0      0      0      1 0" />
      </filter>
      <filter id="luminosity">
        <feColorMatrix type="matrix" values="0.21 0.72 0.07 0 0                                           0.21 0.72 0.07 0 0                                           0.21 0.72 0.07 0 0                                           0    0    0    1 0" />
      </filter>
      <symbol id="ASGIcon" viewbox="0 0 84.480 74.215">
        <g transform="translate(-43.23, 0)">
          <!--transformation so the referential for the element starts at (0,0)-->
          <g id="icon" transform="translate(17.21, 173.12) scale(1,-1)" xml:space="preserve" stroke="black" stroke-linecap="butt" stroke-linejoin="miter" stroke-miterlimit="10.433" stroke-dasharray="none" stroke-dashoffset="0" stroke-opacity="1" fill="none" fill-rule="evenodd" fill-opacity="1" font-style="normal" font-variant="normal" font-weight="normal" font-stretch="normal" font-size-adjust="none" letter-spacing="normal" word-spacing="normal" text-anchor="start">
            <!-- for debugging: bounding box
		<rect x="26.03" y="98.90" width="84.480" height="74.215" stroke="none" fill="red" opacity="1"/>
            
		-->
		
            <path d="M85.973,145.93 L85.304,146.6 L84.615,147.29 L83.19,148.69 L81.725,150.13 L80.245,151.6 L78.776,153.12 L77.344,154.69 L76.651,155.49 L75.976,156.3 L75.324,157.12 L74.698,157.95 L74.1,158.8 L73.535,159.66 L73.006,160.53 L72.515,161.41 L72.066,162.31 L71.662,163.22 L71.307,164.14 L71.003,165.08 L70.755,166.04 L70.565,167 L70.436,167.98 L70.373,168.98 L70.377,169.99 L70.453,171.02 L70.604,172.06 L70.832,173.12 C65.336,168.74,62.926,160.17,65.516,153.65 C67.574,148.45,71.941,144.6,75.746,140.67 C79.711,136.58,82.504,133.46,82.219,127.48 C82.062,122.17,79.824,116.42,75.328,113.37 C83.953,112.56,90.113,117.66,92.773,125.61 C95.52,133.81,91.613,140.13,85.973,145.93 Z " stroke="#006d55" stroke-width="0" fill="#006d55" fill-rule="nonzero" />
            <path d="M42.008,127.98 L41.755,127.06 L41.505,126.12 L41.005,124.19 L40.493,122.2 L39.953,120.18 L39.372,118.15 L38.734,116.13 L38.389,115.13 L38.025,114.14 L37.639,113.16 L37.23,112.21 L36.796,111.27 L36.336,110.35 L35.846,109.45 L35.326,108.58 L34.773,107.75 L34.186,106.94 L33.563,106.17 L32.902,105.44 L32.202,104.75 L31.46,104.1 L30.674,103.5 L29.843,102.94 L28.965,102.44 L28.039,101.99 L27.061,101.6 L26.031,101.27 C32.57,98.707,41.191,100.9,45.547,106.4 C49.016,110.79,50.168,116.49,51.668,121.75 C53.23,127.23,54.539,131.21,59.859,133.95 C64.535,136.47,70.633,137.41,75.523,135.04 C71.91,142.91,64.418,145.7,56.199,144.03 C47.727,142.3,44.203,135.77,42.008,127.98 Z " stroke="#c2ff00" stroke-width="0" fill="#c2ff00" fill-rule="nonzero" />
            <path d="M79.383,100.14 L80.304,100.38 L81.242,100.63 L83.166,101.16 L85.144,101.71 L87.164,102.26 L89.214,102.77 L91.284,103.23 L92.322,103.43 L93.361,103.61 L94.398,103.76 L95.434,103.88 L96.465,103.98 L97.491,104.04 L98.511,104.06 L99.522,104.05 L100.52,103.99 L101.51,103.88 L102.49,103.73 L103.46,103.52 L104.41,103.26 L105.34,102.94 L106.25,102.56 L107.15,102.12 L108.02,101.61 L108.87,101.03 L109.7,100.38 L110.5,99.652 C109.45,106.6,103.24,112.97,96.301,113.99 C90.77,114.81,85.25,112.95,79.945,111.61 C74.418,110.23,70.316,109.37,65.281,112.61 C60.766,115.4,56.902,120.21,56.508,125.63 C51.496,118.57,52.828,110.68,58.391,104.4 C64.117,97.926,71.547,98.148,79.383,100.14 Z " stroke="#71ff76" stroke-width="0" fill="#71ff76" fill-rule="nonzero" />
          </g>
        </g>
      </symbol>
      <symbol id="ASGText" viewbox="0 0 139.055 58.092">
        <g transform="translate(-17.2, -115.02)">
          <!--transformation so the referential for the element starts at (0,0)-->
          <g id="text" transform="translate(17.21, 173.12) scale(1,-1)" xml:space="preserve" stroke="black" stroke-linecap="butt" stroke-linejoin="miter" stroke-miterlimit="10.433" stroke-dasharray="none" stroke-dashoffset="0" stroke-opacity="1" fill="none" fill-rule="evenodd" fill-opacity="1" font-style="normal" font-variant="normal" font-weight="normal" font-stretch="normal" font-size-adjust="none" letter-spacing="normal" word-spacing="normal" text-anchor="start">
            <!-- for debugging: bounding box
		<rect x="0" y="0" width="139.055" height="58.092" stroke="none" fill="green"/>
            
		-->
		
            <path d="M77.016,33.242 L76.189,33.577 L75.342,33.912 L73.597,34.588 L71.802,35.281 L69.98,36.003 L68.152,36.766 L66.341,37.58 L65.448,38.01 L64.567,38.456 L63.701,38.922 L62.853,39.407 L62.025,39.913 L61.22,40.442 L60.44,40.996 L59.69,41.574 L58.97,42.18 L58.285,42.814 L57.636,43.478 L57.027,44.173 L56.46,44.901 L55.938,45.662 L55.463,46.459 L55.038,47.293 L54.667,48.165 L54.351,49.076 L54.094,50.028 L53.898,51.023 C50.793,45.219,51.898,36.953,56.543,32.301 C60.242,28.594,65.43,26.895,70.164,24.93 C75.094,22.879,78.656,21.223,80.625,15.973 C82.461,11.344,82.668,5.5664,79.934,1.2695 C87.652,3.7773,91.066,10.445,90.406,18.277 C89.723,26.355,84.02,30.348,77.016,33.242 Z " stroke="#050157" stroke-width="0" fill="#050157" fill-rule="nonzero" />
            <path d="M72.418,49.301 L73.494,49.294 L74.565,49.275 L75.629,49.244 L76.684,49.202 L77.728,49.152 L78.76,49.093 L79.777,49.028 L80.777,48.957 L88.02,56.285 C85.402,56.965,78.91,58.078,71.973,58.078 C66.203,58.078,61.68,57.316,58.43,55.527 C58.398,55.5,58.371,55.477,58.34,55.449 C58.297,55.402,58.25,55.352,58.199,55.301 C58.176,55.277,58.148,55.246,58.125,55.223 C58.102,55.191,58.078,55.16,58.055,55.129 C58.004,55.066,57.953,54.996,57.898,54.934 C57.855,54.855,57.805,54.781,57.754,54.695 C57.73,54.656,57.703,54.617,57.676,54.574 C57.652,54.531,57.633,54.484,57.609,54.438 C57.562,54.344,57.512,54.25,57.469,54.148 C57.285,53.738,57.141,53.246,57.035,52.695 C56.93,52.148,56.898,51.531,56.906,50.887 C56.914,50.238,57.016,49.562,57.156,48.871 C57.297,48.18,57.523,47.488,57.789,46.809 L58,46.301 C58.078,46.133,58.16,45.969,58.238,45.805 L58.359,45.555 L58.492,45.312 C58.582,45.152,58.672,44.988,58.762,44.828 C59.148,44.207,59.547,43.598,60,43.051 C60.109,42.91,60.219,42.773,60.332,42.641 C60.449,42.508,60.566,42.379,60.676,42.25 C60.902,41.988,61.145,41.758,61.375,41.523 C61.605,41.285,61.848,41.078,62.082,40.867 C62.195,40.77,62.309,40.66,62.422,40.566 C62.543,40.473,62.656,40.383,62.77,40.289 C63.215,39.914,63.66,39.621,64.043,39.344 C64.223,39.23,64.391,39.117,64.547,39.02 C63.02,40.297,62.488,41.703,62.488,43.672 C62.488,48.176,65.973,49.301,72.418,49.301 Z " stroke="#050157" stroke-width="0" fill="#050157" fill-rule="nonzero" />
            <path d="M124.95,33.281 L124.6,33.275 L124.25,33.258 L123.91,33.229 L123.58,33.19 L123.25,33.139 L122.93,33.079 L122.62,33.009 L122.31,32.93 L122.01,32.841 L121.72,32.744 L121.43,32.639 L121.15,32.525 L120.61,32.276 L120.1,31.999 L119.61,31.698 L119.14,31.375 L118.7,31.034 L118.28,30.676 L117.89,30.306 L117.52,29.925 L117.17,29.538 L116.85,29.146 L116.54,28.753 L116.26,28.362 L116,27.975 L115.76,27.595 L115.54,27.226 L115.34,26.87 L115.16,26.531 L115,26.21 L114.86,25.911 L114.73,25.637 L114.63,25.391 L114.54,25.176 L114.47,24.994 L114.44,24.917 L114.41,24.849 L114.39,24.791 L114.38,24.743 L114.36,24.706 L114.36,24.68 V24.66 H129.18 V9.3828 C127.26,9.2305,124.52,9.1562,121.77,9.1562 C112.88,9.1562,108.29,12.383,108.29,25.137 V33.016 C108.29,46.898,114.07,48.926,123.03,48.926 C125.04,48.926,128.4,48.801,131.64,48.637 L138.97,56.055 V56.203 C137.26,56.727,129.33,58.078,121.25,58.078 C109.84,58.078,97.984,54.324,97.984,33.016 V25.137 C97.984,4.9531,108.43,0,121.03,0 C123.24,0,127.39,0.21875,127.39,0.22266 C127.52,0.22656,128.21,0.27344,128.43,0.28906 C137.89,1.1602,138.95,8.8906,139.04,12.242 V24.082 V32.66 V33.285 H125.29 C125.18,33.281,125.07,33.281,124.95,33.281 Z " stroke="#050157" stroke-width="0" fill="#050157" fill-rule="nonzero" />
            <path d="M80.66,12 L80.657,12.068 L80.654,12.136 L80.651,12.204 L80.648,12.271 L80.643,12.403 L80.637,12.535 C80.629,12.715,80.605,12.887,80.594,13.059 C80.582,13.231,80.566,13.398,80.547,13.562 C80.531,13.731,80.508,13.894,80.484,14.059 C80.465,14.219,80.445,14.375,80.422,14.531 C80.402,14.691,80.371,14.84,80.348,14.988 C80.289,15.285,80.254,15.574,80.188,15.848 C80.129,16.113,80.07,16.371,80.02,16.613 C79.977,16.781,79.938,16.938,79.898,17.09 C79.953,16.668,79.977,16.23,79.977,15.762 C79.977,10.731,76.793,8.8555,70.121,8.8555 C66.68,8.8555,63.684,8.9688,60.984,9.1367 L53.652,1.7148 C56.438,0.96484,63.797,0,70.938,0 C71.668,0,72.379,0.023438,73.074,0.0625 C73.246,0.09375,73.438,0.12109,73.633,0.17969 C73.73,0.20312,73.836,0.23047,73.941,0.25781 C74.047,0.28906,74.152,0.32422,74.262,0.35938 C74.484,0.42578,74.707,0.52344,74.945,0.61719 C75.066,0.66016,75.176,0.72656,75.297,0.78125 C75.418,0.84375,75.543,0.89844,75.66,0.97266 C75.781,1.0391,75.902,1.1094,76.027,1.1836 C76.145,1.2617,76.27,1.3438,76.391,1.4297 C76.871,1.7734,77.355,2.1875,77.809,2.6797 C78.254,3.1797,78.664,3.7461,79.027,4.375 C79.395,5.0039,79.691,5.6953,79.93,6.4141 C80.059,6.7734,80.148,7.1484,80.25,7.5156 C80.324,7.8906,80.418,8.2656,80.469,8.6445 C80.535,9.0234,80.57,9.4023,80.609,9.7773 C80.633,9.9688,80.633,10.156,80.645,10.348 C80.652,10.531,80.672,10.719,80.668,10.902 C80.664,11.273,80.684,11.644,80.66,12 Z " stroke="#050157" stroke-width="0" fill="#050157" fill-rule="nonzero" />
            <polygon points="35.098,47.145 34.909,47.708 34.714,48.253 34.511,48.782 34.3,49.294 34.079,49.788 33.847,50.266 33.604,50.727 33.349,51.17 33.079,51.598 32.796,52.008 32.496,52.402 32.181,52.779 31.847,53.14 31.495,53.485 31.124,53.813 30.732,54.124 30.318,54.42 29.882,54.7 29.423,54.963 28.939,55.21 28.429,55.442 27.893,55.657 27.33,55.857 26.738,56.041 26.116,56.209 25.464,56.362 24.78,56.499 24.064,56.62 23.315,56.726 22.531,56.817 21.711,56.893 20.855,56.953 16.676,56.953 0,1.2031 10.598,1.2031 15.488,16.809 33.199,16.809 37.941,1.2031 48.836,1.2031  17.414,25.438 24.43,48.301 31.199,25.438 17.414,25.438 48.836,1.2031" stroke="#050157" stroke-width="0" fill="#050157" fill-rule="evenodd" />
          </g>
        </g>
      </symbol>
      <pattern id="ASGWallPaper" patternUnits="userSpaceOnUse" x="0" y="0" width="298.535" height="125.1995" viewBox="0 0 298.535 125.1995" patternTransform="rotate(-25) skewX(45) scale(0.5)">
        <title>ASG wallpaper</title>
        <g opacity=".09" filter="url(#average)">
          <g transform="skewX(-45) translate(80, 25)">
            <use x="0" y="0" width="84.480" height="74.215" xlink:href="#ASGIcon" />
            <g transform="translate(84.480, 18)">
              <g transform="translate(50, 0) scale(0.8)" opacity="0.7">
                <use x="0" y="0" width="139.055" height="58.092" xlink:href="#ASGText" />
              </g>
            </g>
          </g>
        </g>
      </pattern>
      <symbol id="ASGRochade">
        <!-- for debugging: bounding box
		<rect x="0" y="0" width="132" height="23" fill="yellow"/>
        <g transform="translate(2, 2) scale(0.25)">
          <use x="0" y="0" width="84.480" height="74.215" xlink:href="#ASGIcon" />
          <g transform="translate(87.480, 54.215) scale(4.0)">
            <text x="0" y="0" text-anchor="start" font-family="Arial" font-size="8.00" font-weight="bolder">Provided by ASG-Rochade</text>
          </g>
        </g>
        
		-->
    
      </symbol>
    </defs>
    <g transform="translate(1.44, 1.44)">
      <use x="0" y="0" xlink:href="#ASGRochade" />
    </g>
    <g transform="translate(0, 23.0)">
      <g id="graph0" class="graph" transform="scale(1 1) rotate(0) translate(2.45 190.21)">
        <title>G</title>
        <!-- _5 -->
        <g id="node1" class="node">
          <title>_5</title>
          <g id="a_node1">
            <a xlink:title=" ">
              <polygon fill="white" stroke="#6f619d" points="267.5,-132.5 262,-127 267.5,-121.5 273,-127 267.5,-132.5" />
              <g id="a_node1_0">
                <a xlink:href="['2859464','_top']" xlink:title="Transformation-Map AlbumId TO AlbumId" target="_blank">
                  <text text-anchor="start" x="265.5" y="-124" font-family="Arial" font-size="10.00">
                  </text>
                </a>
                <title>
                  <tspan>Transformation-Map AlbumId TO AlbumId</tspan>
                </title>
              </g>
            </a>
          </g>
        </g>
        <!-- _7 -->
        <g id="node2" class="node">
          <title>_7</title>
          <g id="a_node2">
            <a xlink:title=" ">
              <polygon fill="white" stroke="gray" points="421.5,-178.5 416,-173 421.5,-167.5 427,-173 421.5,-178.5" />
              <g id="a_node2_1">
                <a xlink:href="['2904695','_top']" xlink:title="Stitching Element Link |Album TO albums|2859463|sti_struct|2859463|Album TO albums|.|AlbumId TO AlbumId|2859464|stitch|2859464|AlbumId TO AlbumId|" target="_blank">
                  <text text-anchor="start" x="419.5" y="-170" font-family="Arial" font-size="10.00">
                  </text>
                </a>
                <title>
                  <tspan>Stitching Element Link |Album TO albums|2859463|sti_struct|2859463|Album TO albums|.|AlbumId TO AlbumId|2859464|stitch|2859464|AlbumId TO AlbumId|</tspan>
                </title>
              </g>
            </a>
          </g>
        </g>
        <!-- _5&#45;&gt;_7 -->
        <g id="edge3" class="edge">
          <title>_5:e-&gt;_7:w</title>
          <g id="a_edge3">
            <a xlink:title=" ">
              <path fill="none" stroke="#b3b3b3" stroke-dasharray="5,2" d="M273,-127C295.94,-127 288.26,-154.18 309,-164 348.29,-182.6 364.86,-174.51 404.26,-173.18" />
              <polygon fill="#b3b3b3" stroke="#b3b3b3" points="404.56,-176.67 414.5,-173 404.44,-169.67 404.56,-176.67" />
            </a>
          </g>
        </g>
        <!-- _2147483646 -->
        <g id="node8" class="node">
          <title>_2147483646</title>
          <g id="a_node8">
            <a xlink:title=" ">
              <polygon fill="white" stroke="transparent" points="534,-163.5 309,-163.5 309,-36.5 534,-36.5 534,-163.5" />
              <g id="a_node8_2">
                <a xlink:title="Business Application BigData Warehouse">
                  <polygon fill="#f0e0e0" stroke="transparent" points="317.5,-142 317.5,-159 526.5,-159 526.5,-142 317.5,-142" />
                  <polygon fill="none" stroke="black" points="317.5,-142 317.5,-159 526.5,-159 526.5,-142 317.5,-142" />
                  <text text-anchor="start" x="320.5" y="-148" font-family="Arial" font-size="10.00">Business Application BigData Warehouse       </text>
                </a>
                <title>
                  <tspan>Business Application BigData Warehouse</tspan>
                </title>
              </g>
              <g id="a_node8_3">
                <a xlink:title="DB-System Hive.10.33.6.133">
                  <polygon fill="#d7e4bd" stroke="transparent" points="317.5,-125 317.5,-142 526.5,-142 526.5,-125 317.5,-125" />
                  <polygon fill="none" stroke="black" points="317.5,-125 317.5,-142 526.5,-142 526.5,-125 317.5,-125" />
                  <text text-anchor="start" x="320.5" y="-131" font-family="Arial" font-size="10.00">DB-System Hive.10.33.6.133     </text>
                </a>
                <title>
                  <tspan>DB-System Hive.10.33.6.133</tspan>
                </title>
              </g>
              <g id="a_node8_4">
                <a xlink:title="Database Hive.10.33.6.133.media">
                  <polygon fill="#d7e4bd" stroke="transparent" points="317.5,-108 317.5,-125 526.5,-125 526.5,-108 317.5,-108" />
                  <polygon fill="none" stroke="black" points="317.5,-108 317.5,-125 526.5,-125 526.5,-108 317.5,-108" />
                  <text text-anchor="start" x="320.5" y="-114" font-family="Arial" font-size="10.00">Database media  </text>
                </a>
                <title>
                  <tspan>Database Hive.10.33.6.133.media</tspan>
                </title>
              </g>
              <g id="a_node8_5">
                <a xlink:href="['1127225','_top']" xlink:title="Table | View media.albums" target="_blank">
                  <polygon fill="#84a343" stroke="transparent" points="317.5,-91 317.5,-108 526.5,-108 526.5,-91 317.5,-91" />
                  <polygon fill="none" stroke="black" points="317.5,-91 317.5,-108 526.5,-108 526.5,-91 317.5,-91" />
                  <text text-anchor="start" x="320.5" y="-97" font-family="Arial" font-size="10.00">Table albums  </text>
                </a>
                <title>
                  <tspan>Table | View media.albums</tspan>
                </title>
              </g>
              <g id="a_node8_6">
                <a xlink:href="['1127227','_top']" xlink:title="Column albums.albumid" target="_blank">
                  <polygon fill="#d7e4bd" stroke="transparent" points="317.5,-74 317.5,-91 434.5,-91 434.5,-74 317.5,-74" />
                  <polygon fill="none" stroke="black" points="317.5,-74 317.5,-91 434.5,-91 434.5,-74 317.5,-74" />
                  <text text-anchor="start" x="320.5" y="-80" font-family="Arial" font-size="10.00">albumid</text>
                </a>
                <title>
                  <tspan>Column albums.albumid</tspan>
                </title>
              </g>
              <g id="a_node8_7">
                <a xlink:title="Column int">
                  <polygon fill="#d7e4bd" stroke="transparent" points="434.5,-74 434.5,-91 526.5,-91 526.5,-74 434.5,-74" />
                  <polygon fill="none" stroke="black" points="434.5,-74 434.5,-91 526.5,-91 526.5,-74 434.5,-74" />
                  <text text-anchor="start" x="437.5" y="-80" font-family="Arial" font-size="10.00">int</text>
                </a>
                <title>
                  <tspan>Column int</tspan>
                </title>
              </g>
              <g id="a_node8_8">
                <a xlink:href="['2874895','_top']" xlink:title="Column albums.albumTitle" target="_blank">
                  <polygon fill="#d7e4bd" stroke="transparent" points="317.5,-57 317.5,-74 434.5,-74 434.5,-57 317.5,-57" />
                  <polygon fill="none" stroke="black" points="317.5,-57 317.5,-74 434.5,-74 434.5,-57 317.5,-57" />
                  <text text-anchor="start" x="320.5" y="-63" font-family="Arial" font-size="10.00">albumTitle  </text>
                </a>
                <title>
                  <tspan>Column albums.albumTitle</tspan>
                </title>
              </g>
              <g id="a_node8_9">
                <a xlink:title="Column string">
                  <polygon fill="#d7e4bd" stroke="transparent" points="434.5,-57 434.5,-74 526.5,-74 526.5,-57 434.5,-57" />
                  <polygon fill="none" stroke="black" points="434.5,-57 434.5,-74 526.5,-74 526.5,-57 434.5,-57" />
                  <text text-anchor="start" x="437.5" y="-63" font-family="Arial" font-size="10.00">string</text>
                </a>
                <title>
                  <tspan>Column string</tspan>
                </title>
              </g>
              <g id="a_node8_10">
                <a xlink:href="['1127226','_top']" xlink:title="Column albums.artistid" target="_blank">
                  <polygon fill="#d7e4bd" stroke="transparent" points="317.5,-40 317.5,-57 434.5,-57 434.5,-40 317.5,-40" />
                  <polygon fill="none" stroke="black" points="317.5,-40 317.5,-57 434.5,-57 434.5,-40 317.5,-40" />
                  <text text-anchor="start" x="320.5" y="-46" font-family="Arial" font-size="10.00">artistid</text>
                </a>
                <title>
                  <tspan>Column albums.artistid</tspan>
                </title>
              </g>
              <g id="a_node8_11">
                <a xlink:title="Column int">
                  <polygon fill="#d7e4bd" stroke="transparent" points="434.5,-40 434.5,-57 526.5,-57 526.5,-40 434.5,-40" />
                  <polygon fill="none" stroke="black" points="434.5,-40 434.5,-57 526.5,-57 526.5,-40 434.5,-40" />
                  <text text-anchor="start" x="437.5" y="-46" font-family="Arial" font-size="10.00">int</text>
                </a>
                <title>
                  <tspan>Column int</tspan>
                </title>
              </g>
            </a>
          </g>
        </g>
        <!-- _5&#45;&gt;_2147483646 -->
        <g id="edge2" class="edge">
          <title>_5:e-&gt;_2147483646:w</title>
          <g id="a_edge2">
            <a xlink:title=" ">
              <path fill="none" stroke="#b3b3b3" d="M273,-127C296.69,-127 291.41,-94.37 306.49,-84.68" />
              <polygon fill="#b3b3b3" stroke="#b3b3b3" points="307.75,-87.97 316.5,-82 305.93,-81.21 307.75,-87.97" />
            </a>
          </g>
        </g>
        <!-- _7&#45;&gt;_5 -->
        <g id="edge4" class="edge">
          <title>_7:e-&gt;_5:w</title>
          <g id="a_edge4">
            <a xlink:title=" ">
              <path fill="none" stroke="#b3b3b3" stroke-dasharray="5,2" d="M428.5,-173C458.79,-173 434.97,-211.44 309,-164 238.66,-137.51 240.86,-129.96 250.49,-127.83" />
              <polygon fill="#b3b3b3" stroke="#b3b3b3" points="250.82,-131.31 260.5,-127 250.25,-124.34 250.82,-131.31" />
            </a>
          </g>
        </g>
        <!-- _10 -->
        <g id="node3" class="node">
          <title>_10</title>
          <g id="a_node3">
            <a xlink:title=" ">
              <polygon fill="white" stroke="#6f619d" points="267.5,-33.5 262,-28 267.5,-22.5 273,-28 267.5,-33.5" />
              <g id="a_node3_12">
                <a xlink:href="['2859466','_top']" xlink:title="Transformation-Map Title TO Title" target="_blank">
                  <text text-anchor="start" x="265.5" y="-25" font-family="Arial" font-size="10.00">
                  </text>
                </a>
                <title>
                  <tspan>Transformation-Map Title TO Title</tspan>
                </title>
              </g>
            </a>
          </g>
        </g>
        <!-- _12 -->
        <g id="node4" class="node">
          <title>_12</title>
          <g id="a_node4">
            <a xlink:title=" ">
              <polygon fill="gray" stroke="gray" points="421.5,-32.5 416,-27 421.5,-21.5 427,-27 421.5,-32.5" />
              <g id="a_node4_13">
                <a xlink:href="['2904697','_top']" xlink:title="Stitching Element Link |Album TO albums|2859463|sti_struct|2859463|Album TO albums|.|Title TO Title|2859466|stitch|2859466|Title TO Title|&amp;#10;Identical Names" target="_blank">
                  <text text-anchor="start" x="419.5" y="-24" font-family="Arial" font-size="10.00">
                  </text>
                </a>
                <title>
                  <tspan>Stitching Element Link |Album TO albums|2859463|sti_struct|2859463|Album TO albums|.|Title TO Title|2859466|stitch|2859466|Title TO Title|&amp;#10;Identical Names</tspan>
                </title>
              </g>
            </a>
          </g>
        </g>
        <!-- _10&#45;&gt;_12 -->
        <g id="edge7" class="edge">
          <title>_10:e-&gt;_12:w</title>
          <g id="a_edge7">
            <a xlink:title=" ">
              <path fill="none" stroke="#b3b3b3" stroke-dasharray="5,2" d="M273,-28C332.33,-28 349.68,-27.11 404.25,-27.01" />
              <polygon fill="#b3b3b3" stroke="#b3b3b3" points="404.5,-30.51 414.5,-27 404.5,-23.51 404.5,-30.51" />
            </a>
          </g>
        </g>
        <!-- _10&#45;&gt;_2147483646 -->
        <g id="edge6" class="edge">
          <title>_10:e-&gt;_2147483646:w</title>
          <g id="a_edge6">
            <a xlink:title=" ">
              <path fill="none" stroke="#b3b3b3" d="M273,-28C294.42,-28 292.59,-54.34 306.74,-62.57" />
              <polygon fill="#b3b3b3" stroke="#b3b3b3" points="305.95,-65.98 316.5,-65 307.64,-59.19 305.95,-65.98" />
            </a>
          </g>
        </g>
        <!-- _12&#45;&gt;_10 -->
        <g id="edge8" class="edge">
          <title>_12:e-&gt;_10:w</title>
          <g id="a_edge8">
            <a xlink:title=" ">
              <path fill="none" stroke="#b3b3b3" stroke-dasharray="5,2" d="M428.5,-27C430.98,-27 429.4,-30.9 427.5,-32.5 420.93,-38.02 281.58,-33.47 273,-33.5 271.4,-33.51 270.06,-33.83 268.83,-34" />
              <polygon fill="#b3b3b3" stroke="#b3b3b3" points="270.66,-31.01 260.5,-28 266.57,-36.68 270.66,-31.01" />
            </a>
          </g>
        </g>
        <!-- _15 -->
        <g id="node5" class="node">
          <title>_15</title>
          <g id="a_node5">
            <a xlink:title=" ">
              <polygon fill="white" stroke="#6f619d" points="267.5,-17.5 262,-12 267.5,-6.5 273,-12 267.5,-17.5" />
              <g id="a_node5_14">
                <a xlink:href="['2859465','_top']" xlink:title="Transformation-Map ArtistId TO ArtistId" target="_blank">
                  <text text-anchor="start" x="265.5" y="-9" font-family="Arial" font-size="10.00">
                  </text>
                </a>
                <title>
                  <tspan>Transformation-Map ArtistId TO ArtistId</tspan>
                </title>
              </g>
            </a>
          </g>
        </g>
        <!-- _17 -->
        <g id="node6" class="node">
          <title>_17</title>
          <g id="a_node6">
            <a xlink:title=" ">
              <polygon fill="gray" stroke="gray" points="421.5,-17.5 416,-12 421.5,-6.5 427,-12 421.5,-17.5" />
              <g id="a_node6_15">
                <a xlink:href="['2904696','_top']" xlink:title="Stitching Element Link |Album TO albums|2859463|sti_struct|2859463|Album TO albums|.|ArtistId TO ArtistId|2859465|stitch|2859465|ArtistId TO ArtistId|&amp;#10;Identical Names" target="_blank">
                  <text text-anchor="start" x="419.5" y="-9" font-family="Arial" font-size="10.00">
                  </text>
                </a>
                <title>
                  <tspan>Stitching Element Link |Album TO albums|2859463|sti_struct|2859463|Album TO albums|.|ArtistId TO ArtistId|2859465|stitch|2859465|ArtistId TO ArtistId|&amp;#10;Identical Names</tspan>
                </title>
              </g>
            </a>
          </g>
        </g>
        <!-- _15&#45;&gt;_17 -->
        <g id="edge11" class="edge">
          <title>_15:e-&gt;_17:w</title>
          <g id="a_edge11">
            <a xlink:title=" ">
              <path fill="none" stroke="#b3b3b3" stroke-dasharray="5,2" d="M273,-12C332.33,-12 349.68,-12 404.25,-12" />
              <polygon fill="#b3b3b3" stroke="#b3b3b3" points="404.5,-15.5 414.5,-12 404.5,-8.5 404.5,-15.5" />
            </a>
          </g>
        </g>
        <!-- _15&#45;&gt;_2147483646 -->
        <g id="edge10" class="edge">
          <title>_15:e-&gt;_2147483646:w</title>
          <g id="a_edge10">
            <a xlink:title=" ">
              <path fill="none" stroke="#b3b3b3" d="M273,-12C293.98,-12 292.74,-37.16 306.43,-45.41" />
              <polygon fill="#b3b3b3" stroke="#b3b3b3" points="305.94,-48.9 316.5,-48 307.69,-42.12 305.94,-48.9" />
            </a>
          </g>
        </g>
        <!-- _17&#45;&gt;_15 -->
        <g id="edge12" class="edge">
          <title>_17:e-&gt;_15:w</title>
          <g id="a_edge12">
            <a xlink:title=" ">
              <path fill="none" stroke="#b3b3b3" stroke-dasharray="5,2" d="M428.5,-12C430.98,-12 429.41,-15.91 427.5,-17.5 424.44,-20.05 305.59,-20.4 270.23,-15.01" />
              <polygon fill="#b3b3b3" stroke="#b3b3b3" points="271.09,-11.61 260.5,-12 269.02,-18.3 271.09,-11.61" />
            </a>
          </g>
        </g>
        <!-- _2147483647 -->
        <g id="node7" class="node">
          <title>_2147483647</title>
          <g id="a_node7">
            <a xlink:title=" ">
              <polygon fill="white" stroke="transparent" points="226,-148 0,-148 0,0 226,0 226,-148" />
              <g id="a_node7_16">
                <a xlink:title="Business Application Media Data Chinook">
                  <polygon fill="#f0e0e0" stroke="transparent" points="8,-127 8,-144 218,-144 218,-127 8,-127" />
                  <polygon fill="none" stroke="black" points="8,-127 8,-144 218,-144 218,-127 8,-127" />
                  <text text-anchor="start" x="11" y="-133" font-family="Arial" font-size="10.00">Business Application Media Data Chinook       </text>
                </a>
                <title>
                  <tspan>Business Application Media Data Chinook</tspan>
                </title>
              </g>
              <g id="a_node7_17">
                <a xlink:title="DB-System GECHEM8R2DEV1">
                  <polygon fill="#eba389" stroke="transparent" points="8,-110 8,-127 218,-127 218,-110 8,-110" />
                  <polygon fill="none" stroke="black" points="8,-110 8,-127 218,-127 218,-110 8,-110" />
                  <text text-anchor="start" x="11" y="-116" font-family="Arial" font-size="10.00">DB-System GECHEM8R2DEV1    </text>
                </a>
                <title>
                  <tspan>DB-System GECHEM8R2DEV1</tspan>
                </title>
              </g>
              <g id="a_node7_18">
                <a xlink:title="Database GECHEM8R2DEV1.Chinook">
                  <polygon fill="#eba389" stroke="transparent" points="8,-93 8,-110 218,-110 218,-93 8,-93" />
                  <polygon fill="none" stroke="black" points="8,-93 8,-110 218,-110 218,-93 8,-93" />
                  <text text-anchor="start" x="11" y="-99" font-family="Arial" font-size="10.00">Database Chinook   </text>
                </a>
                <title>
                  <tspan>Database GECHEM8R2DEV1.Chinook</tspan>
                </title>
              </g>
              <g id="a_node7_19">
                <a xlink:title="Schema Chinook.dbo">
                  <polygon fill="#eba389" stroke="transparent" points="8,-76 8,-93 218,-93 218,-76 8,-76" />
                  <polygon fill="none" stroke="black" points="8,-76 8,-93 218,-93 218,-76 8,-76" />
                  <text text-anchor="start" x="11" y="-82" font-family="Arial" font-size="10.00">Schema dbo  </text>
                </a>
                <title>
                  <tspan>Schema Chinook.dbo</tspan>
                </title>
              </g>
              <g id="a_node7_20">
                <a xlink:href="['1401317','_top']" xlink:title="Table | View dbo.Album" target="_blank">
                  <polygon fill="#d94835" stroke="transparent" points="8,-55 8,-76 218,-76 218,-55 8,-55" />
                  <polygon fill="none" stroke="#faf42a" stroke-width="3" points="9.5,-56.5 9.5,-74.5 216.5,-74.5 216.5,-56.5 9.5,-56.5" />
                  <text text-anchor="start" x="13" y="-63" font-family="Arial" font-size="10.00">Table Album  </text>
                </a>
                <title>
                  <tspan>Table | View dbo.Album</tspan>
                </title>
              </g>
              <g id="a_node7_21">
                <a xlink:href="['1401412','_top']" xlink:title="Column Album.AlbumId" target="_blank">
                  <polygon fill="#eb8a66" stroke="transparent" stroke-width="3" points="8,-38 8,-55 103,-55 103,-38 8,-38" />
                  <polygon fill="none" stroke="black" points="8,-38 8,-55 103,-55 103,-38 8,-38" />
                  <text text-anchor="start" x="11" y="-44" font-family="Arial" font-size="10.00">AlbumId</text>
                </a>
                <title>
                  <tspan>Column Album.AlbumId</tspan>
                </title>
              </g>
              <g id="a_node7_22">
                <a xlink:title="Column int">
                  <polygon fill="#eb8a66" stroke="transparent" points="103,-38 103,-55 218,-55 218,-38 103,-38" />
                  <polygon fill="none" stroke="black" points="103,-38 103,-55 218,-55 218,-38 103,-38" />
                  <text text-anchor="start" x="106" y="-44" font-family="Arial" font-size="10.00">int</text>
                </a>
                <title>
                  <tspan>Column int</tspan>
                </title>
              </g>
              <g id="a_node7_23">
                <a xlink:href="['1401413','_top']" xlink:title="Column Album.Title" target="_blank">
                  <polygon fill="#eb8a66" stroke="transparent" points="8,-21 8,-38 103,-38 103,-21 8,-21" />
                  <polygon fill="none" stroke="black" points="8,-21 8,-38 103,-38 103,-21 8,-21" />
                  <text text-anchor="start" x="11" y="-27" font-family="Arial" font-size="10.00">Title</text>
                </a>
                <title>
                  <tspan>Column Album.Title</tspan>
                </title>
              </g>
              <g id="a_node7_24">
                <a xlink:title="Column nvarchar">
                  <polygon fill="#eb8a66" stroke="transparent" points="103,-21 103,-38 218,-38 218,-21 103,-21" />
                  <polygon fill="none" stroke="black" points="103,-21 103,-38 218,-38 218,-21 103,-21" />
                  <text text-anchor="start" x="106" y="-27" font-family="Arial" font-size="10.00">nvarchar(160)</text>
                </a>
                <title>
                  <tspan>Column nvarchar</tspan>
                </title>
              </g>
              <g id="a_node7_25">
                <a xlink:href="['1401414','_top']" xlink:title="Column Album.ArtistId" target="_blank">
                  <polygon fill="#eb8a66" stroke="transparent" points="8,-4 8,-21 103,-21 103,-4 8,-4" />
                  <polygon fill="none" stroke="black" points="8,-4 8,-21 103,-21 103,-4 8,-4" />
                  <text text-anchor="start" x="11" y="-10" font-family="Arial" font-size="10.00">ArtistId</text>
                </a>
                <title>
                  <tspan>Column Album.ArtistId</tspan>
                </title>
              </g>
              <g id="a_node7_26">
                <a xlink:title="Column int">
                  <polygon fill="#eb8a66" stroke="transparent" points="103,-4 103,-21 218,-21 218,-4 103,-4" />
                  <polygon fill="none" stroke="black" points="103,-4 103,-21 218,-21 218,-4 103,-4" />
                  <text text-anchor="start" x="106" y="-10" font-family="Arial" font-size="10.00">int</text>
                </a>
                <title>
                  <tspan>Column int</tspan>
                </title>
              </g>
            </a>
          </g>
        </g>
        <!-- _2147483647&#45;&gt;_5 -->
        <g id="edge1" class="edge">
          <title>_2147483647:e-&gt;_5:w</title>
          <g id="a_edge1">
            <a xlink:title=" ">
              <path fill="none" stroke="#b3b3b3" d="M219,-46C255.78,-46 228.01,-111.95 252.18,-124.83" />
              <polygon fill="#b3b3b3" stroke="#b3b3b3" points="251.48,-128.26 262,-127 252.99,-121.43 251.48,-128.26" />
            </a>
          </g>
        </g>
        <!-- _2147483647&#45;&gt;_10 -->
        <g id="edge5" class="edge">
          <title>_2147483647:e-&gt;_10:w</title>
          <g id="a_edge5">
            <a xlink:title=" ">
              <path fill="none" stroke="#b3b3b3" d="M219,-29C234.23,-29 240.35,-28.36 251.89,-28.11" />
              <polygon fill="#b3b3b3" stroke="#b3b3b3" points="252.04,-31.61 262,-28 251.96,-24.61 252.04,-31.61" />
            </a>
          </g>
        </g>
        <!-- _2147483647&#45;&gt;_15 -->
        <g id="edge9" class="edge">
          <title>_2147483647:e-&gt;_15:w</title>
          <g id="a_edge9">
            <a xlink:title=" ">
              <path fill="none" stroke="#b3b3b3" d="M219,-12C234.23,-12 240.36,-12 251.89,-12" />
              <polygon fill="#b3b3b3" stroke="#b3b3b3" points="252,-15.5 262,-12 252,-8.5 252,-15.5" />
            </a>
          </g>
        </g>
      </g>
    </g>
  </svg>